<?xml version="1.0" encoding="UTF-8"?>
<svg id="Layer_2" data-name="Layer 2" xmlns="http://www.w3.org/2000/svg" viewBox="0 0 669.65 91.17">
  <defs>
    <style>
      .cls-1 {
        fill: #006c98;
      }

      .cls-2 {
        fill: #ec7700;
      }

      .cls-3 {
        fill: #71984a;
      }
    </style>
  </defs>
  <g id="Layer_2-2" data-name="Layer 2">
    <g>
      <g>
        <polygon class="cls-1" points="46.27 90.44 0 90.44 51.48 0 59.29 13.55 22.55 77.28 26.78 77.28 38.05 77.28 51.48 54.03 59.43 66.95 46.27 90.44"/>
        <polygon class="cls-3" points="59.43 40.74 67.29 27.48 74.5 40 66.99 53.43 59.43 40.74"/>
        <polygon class="cls-2" points="89.03 90.44 73.49 64.34 81.06 51.37 103.59 90.44 89.03 90.44"/>
      </g>
      <g>
        <path class="cls-1" d="m147.33,49.72h-7.53l-1.89-3.78-13.14.03-1.95,3.75h-6.63l13.11-23.52h5.64l12.39,23.52Zm-15.78-16.26l-4.74,8.76h9.21l-4.47-8.76Z"/>
        <path class="cls-1" d="m175.8,26.2v16.08c0,5.22-2.49,7.8-12.15,7.8s-12.15-2.58-12.15-7.8v-16.08h6.66v13.02c0,4.14,1.68,5.46,5.49,5.46s5.49-1.32,5.49-5.46v-13.02h6.66Z"/>
        <path class="cls-1" d="m189.18,49.72v-18.78h-7.71v-4.74h22.56v4.74h-7.71v18.78h-7.14Z"/>
        <path class="cls-1" d="m207.69,37.96c0-8.94,5.94-12.18,14.13-12.18s14.13,3.24,14.13,12.18-5.94,12.18-14.13,12.18-14.13-3.24-14.13-12.18Zm14.13-6.6c-4.44,0-7.17,1.98-7.17,6.6s2.73,6.6,7.17,6.6,7.17-1.98,7.17-6.6-2.73-6.6-7.17-6.6Z"/>
        <path class="cls-1" d="m241.32,49.72v-23.52h7.5l9.09,15.24,9.09-15.24h7.5v23.52h-6.36v-16.62h-.06l-8.7,16.62h-2.94l-8.7-16.62h-.06v16.62h-6.36Z"/>
        <path class="cls-1" d="m279.84,37.96c0-8.94,5.94-12.18,14.13-12.18s14.13,3.24,14.13,12.18-5.94,12.18-14.13,12.18-14.13-3.24-14.13-12.18Zm14.13-6.6c-4.44,0-7.17,1.98-7.17,6.6s2.73,6.6,7.17,6.6,7.17-1.98,7.17-6.6-2.73-6.6-7.17-6.6Z"/>
        <path class="cls-1" d="m319.5,49.72v-18.78h-7.71v-4.74h22.56v4.74h-7.71v18.78h-7.14Z"/>
        <path class="cls-1" d="m340.14,26.2h7.14v23.52h-7.14v-23.52Z"/>
        <path class="cls-1" d="m352.02,26.2h7.32l6.72,14.64,6.48-14.64h6.96l-11.61,23.94h-4.26l-11.61-23.94Z"/>
        <path class="cls-1" d="m383.94,49.72v-23.52h19.2v4.74h-12.06v4.56h10.41v4.74h-10.41v4.74h12.96v4.74h-20.1Z"/>
        <path class="cls-1" d="m421.05,49.72v-23.52h16.02c5.76,0,8.52,2.64,8.52,6.33,0,4.86-3.45,5.52-7.32,6.39v.06c2.01.57,4.35,1.53,5.7,3.84l4.05,6.9h-8.16l-4.02-7.56c-.51-.96-1.32-1.44-2.31-1.44h-5.52v9h-6.96Zm6.96-12.84h4.2c4.98,0,6.42-1.02,6.42-3.6,0-2.04-1.44-3.24-4.56-3.24h-6.06v6.84Z"/>
        <path class="cls-1" d="m453.21,26.2h7.14v23.52h-7.14v-23.52Z"/>
        <path class="cls-1" d="m466.02,42.82c2.61,1.26,7.2,2.88,10.08,2.88,3.12,0,4.5-.96,4.5-2.46,0-4.02-14.7-1.17-14.7-9.96,0-5.85,5.04-7.5,10.05-7.5,3.63,0,5.49.48,8.46,1.23l.66,5.67c-2.88-1.17-5.43-2.46-9.51-2.46-2.28,0-3.84.6-3.84,2.01,0,4.11,14.7.96,14.7,10.14,0,4.47-3.24,7.77-10.2,7.77-3.6,0-6.69-.54-9.66-1.14l-.54-6.18Z"/>
        <path class="cls-1" d="m491.4,49.72v-23.52h6.96v10.8l9.33-10.8h7.44l-9.6,10.74,12.96,12.78h-8.61l-11.52-11.22v11.22h-6.96Z"/>
      </g>
      <g>
        <path class="cls-1" d="m118.32,90.75v-23.52h7.5l9.09,15.24,9.09-15.24h7.5v23.52h-6.36v-16.62h-.06l-8.7,16.62h-2.94l-8.7-16.62h-.06v16.62h-6.36Z"/>
        <path class="cls-1" d="m186.54,90.75h-7.53l-1.89-3.78-13.14.03-1.95,3.75h-6.63l13.11-23.52h5.64l12.39,23.52Zm-15.78-16.26l-4.74,8.76h9.21l-4.47-8.76Z"/>
        <path class="cls-1" d="m208.74,82.17h.06v-14.94h6.36v23.52h-7.32l-10.83-14.7h-.06v14.7h-6.36v-23.52h7.2l10.95,14.94Z"/>
        <path class="cls-1" d="m250.32,90.75h-7.53l-1.89-3.78-13.14.03-1.95,3.75h-6.63l13.11-23.52h5.64l12.39,23.52Zm-15.78-16.26l-4.74,8.76h9.21l-4.47-8.76Z"/>
        <path class="cls-1" d="m278.04,72.63c-3.12-.81-6.3-1.5-9.21-1.5-5.34,0-9.36,2.82-9.36,7.98,0,4.89,3.72,7.56,8.61,7.56,1.83,0,3.75-.18,5.49-.93v-3.27h-4.38v-4.32h10.32v11.4c-3.84,1.11-7.83,1.62-11.76,1.62-8.28,0-15.24-2.61-15.24-11.7,0-8.55,6.39-12.66,14.88-12.66,3.21,0,6.72.45,10.11,1.35l.54,4.47Z"/>
        <path class="cls-1" d="m286.26,90.75v-23.52h19.2v4.74h-12.06v4.56h10.41v4.74h-10.41v4.74h12.96v4.74h-20.1Z"/>
        <path class="cls-1" d="m312.42,90.75v-23.52h7.5l9.09,15.24,9.09-15.24h7.5v23.52h-6.36v-16.62h-.06l-8.7,16.62h-2.94l-8.7-16.62h-.06v16.62h-6.36Z"/>
        <path class="cls-1" d="m352.8,90.75v-23.52h19.2v4.74h-12.06v4.56h10.41v4.74h-10.41v4.74h12.96v4.74h-20.1Z"/>
        <path class="cls-1" d="m397.23,82.17h.06v-14.94h6.36v23.52h-7.32l-10.83-14.7h-.06v14.7h-6.36v-23.52h7.2l10.95,14.94Z"/>
        <path class="cls-1" d="m416.88,90.75v-18.78h-7.71v-4.74h22.56v4.74h-7.71v18.78h-7.14Z"/>
        <path class="cls-1" d="m455.04,90.75h-6.96v-23.52h9.24c9.18,0,11.97,2.46,11.97,7.44,0,3.84-2.31,7.02-9.69,7.02-1.74,0-3.15-.06-4.56-.09v9.15Zm0-12.99c.93.06,1.86.09,2.79.09,3.69,0,4.8-1.47,4.8-3.39s-1.11-3.39-4.8-3.39c-.93,0-1.86.12-2.79.18v6.51Z"/>
        <path class="cls-1" d="m499.44,90.75h-7.53l-1.89-3.78-13.14.03-1.95,3.75h-6.63l13.11-23.52h5.64l12.39,23.52Zm-15.78-16.26l-4.74,8.76h9.21l-4.47-8.76Z"/>
        <path class="cls-1" d="m503.49,90.75v-23.52h16.02c5.76,0,8.52,2.64,8.52,6.33,0,4.86-3.45,5.52-7.32,6.39v.06c2.01.57,4.35,1.53,5.7,3.84l4.05,6.9h-8.16l-4.02-7.56c-.51-.96-1.32-1.44-2.31-1.44h-5.52v9h-6.96Zm6.96-12.84h4.2c4.98,0,6.42-1.02,6.42-3.6,0-2.04-1.44-3.24-4.56-3.24h-6.06v6.84Z"/>
        <path class="cls-1" d="m540.75,90.75v-18.78h-7.71v-4.74h22.56v4.74h-7.71v18.78h-7.14Z"/>
        <path class="cls-1" d="m579.27,82.17h.06v-14.94h6.36v23.52h-7.32l-10.83-14.7h-.06v14.7h-6.36v-23.52h7.2l10.95,14.94Z"/>
        <path class="cls-1" d="m593.01,90.75v-23.52h19.2v4.74h-12.06v4.56h10.41v4.74h-10.41v4.74h12.96v4.74h-20.1Z"/>
        <path class="cls-1" d="m619.28,90.75v-23.52h16.02c5.76,0,8.52,2.64,8.52,6.33,0,4.86-3.45,5.52-7.32,6.39v.06c2.01.57,4.35,1.53,5.7,3.84l4.05,6.9h-8.16l-4.02-7.56c-.51-.96-1.32-1.44-2.31-1.44h-5.52v9h-6.96Zm6.96-12.84h4.2c4.98,0,6.42-1.02,6.42-3.6,0-2.04-1.44-3.24-4.56-3.24h-6.06v6.84Z"/>
        <path class="cls-1" d="m649.25,83.85c2.61,1.26,7.2,2.88,10.08,2.88,3.12,0,4.5-.96,4.5-2.46,0-4.02-14.7-1.17-14.7-9.96,0-5.85,5.04-7.5,10.05-7.5,3.63,0,5.49.48,8.46,1.23l.66,5.67c-2.88-1.17-5.43-2.46-9.51-2.46-2.28,0-3.84.6-3.84,2.01,0,4.11,14.7.96,14.7,10.14,0,4.47-3.24,7.77-10.2,7.77-3.6,0-6.69-.54-9.66-1.14l-.54-6.18Z"/>
      </g>
    </g>
  </g>
</svg>